<svg width="1620" height="55" viewBox="0 0 1620 55" fill="none" xmlns="http://www.w3.org/2000/svg">
<rect x="1565.5" y="0.5" width="54" height="54" stroke="#707070"/>
<path d="M1604.03 26.9697C1604.32 27.2626 1604.32 27.7374 1604.03 28.0303L1599.26 32.8033C1598.96 33.0962 1598.49 33.0962 1598.2 32.8033C1597.9 32.5104 1597.9 32.0355 1598.2 31.7426L1602.44 27.5L1598.2 23.2574C1597.9 22.9645 1597.9 22.4896 1598.2 22.1967C1598.49 21.9038 1598.96 21.9038 1599.26 22.1967L1604.03 26.9697ZM1581.5 26.75L1603.5 26.75L1603.5 28.25L1581.5 28.25L1581.5 26.75Z" fill="#1E2126"/>
<path d="M15.9697 26.9697C15.6768 27.2626 15.6768 27.7374 15.9697 28.0303L20.7426 32.8033C21.0355 33.0962 21.5104 33.0962 21.8033 32.8033C22.0962 32.5104 22.0962 32.0355 21.8033 31.7426L17.5607 27.5L21.8033 23.2574C22.0962 22.9645 22.0962 22.4896 21.8033 22.1967C21.5104 21.9038 21.0355 21.9038 20.7426 22.1967L15.9697 26.9697ZM38.5 26.75L16.5 26.75L16.5 28.25L38.5 28.25L38.5 26.75Z" fill="#1E2126"/>
<rect x="0.5" y="0.5" width="54" height="54" stroke="#707070"/>
</svg>
