<svg width="554" height="537" viewBox="0 0 554 537" fill="none" xmlns="http://www.w3.org/2000/svg">
<path d="M277.887 270.786L43.4173 135.412L0 160.632L277.887 321.071L553.988 160.632L510.571 135.568L277.887 270.786Z" fill="#F1F1F1"/>
<path d="M161.429 253.792L351.084 143.56L307.667 118.495L118.012 228.727L161.429 253.792Z" fill="#F1F1F1"/>
<path d="M277.887 50.285L43.4173 185.659L0 160.439L277.887 0L553.988 160.439L510.571 185.503L277.887 50.285Z" fill="#F1F1F1"/>
<path d="M277.887 383.617L0 228.222V273.463L277.887 433.902L553.988 273.463V228.222L277.887 383.617Z" fill="#F1F1F1"/>
<path d="M277.887 486.437L0 331.082V376.284L277.887 536.722L553.988 376.284V331.082L277.887 486.437Z" fill="#F1F1F1"/>
</svg>
